<svg width="22" height="24" viewBox="0 0 22 24" fill="none" xmlns="http://www.w3.org/2000/svg">
<g clip-path="url(#clip0_505_114)">
<path d="M22.1541 12.923V12.956C22.1541 14.498 21.8301 15.964 21.2471 17.29L21.2741 17.221C19.5521 21.232 15.6371 23.989 11.0771 23.989C6.51706 23.989 2.60206 21.231 0.90806 17.293L0.88006 17.221C0.294789 15.8755 -0.00486313 14.4232 5.96851e-05 12.956V12.887C5.96851e-05 9.292 1.72906 6.102 4.40006 4.101L4.42906 4.081C4.62378 3.92977 4.8473 3.81985 5.08596 3.75795C5.32461 3.69605 5.57338 3.68348 5.81706 3.721L5.80706 3.72C6.30806 3.779 6.73606 4.048 7.00706 4.435L7.01106 4.44C7.16217 4.6311 7.27156 4.85175 7.33219 5.08771C7.39282 5.32368 7.40333 5.56972 7.36306 5.81L7.36406 5.8C7.33372 6.03981 7.25529 6.27103 7.13347 6.4798C7.01164 6.68858 6.84892 6.87061 6.65506 7.015L6.65006 7.018C5.72833 7.70653 4.97999 8.60065 4.46457 9.62924C3.94915 10.6578 3.68086 11.7925 3.68106 12.943C3.68123 14.2034 4.00344 15.4428 4.61712 16.5436C5.2308 17.6445 6.11558 18.5703 7.18753 19.2332C8.25948 19.8961 9.48303 20.2741 10.7421 20.3314C12.0011 20.3886 13.2539 20.1232 14.3816 19.5603C15.5093 18.9974 16.4745 18.1557 17.1855 17.1151C17.8965 16.0745 18.3299 14.8694 18.4444 13.6143C18.559 12.3591 18.3509 11.0955 17.84 9.94336C17.3291 8.79121 16.5322 7.78872 15.5251 7.031L15.5061 7.017C15.3125 6.87334 15.1496 6.69234 15.0272 6.48469C14.9047 6.27703 14.8251 6.04694 14.7931 5.808L14.7921 5.799C14.7534 5.55954 14.7651 5.31466 14.8264 5.07998C14.8877 4.8453 14.9973 4.62597 15.1481 4.436L15.1451 4.44C15.2834 4.24198 15.4622 4.07553 15.6695 3.9516C15.8769 3.82767 16.1081 3.74907 16.3481 3.721L16.3561 3.72C16.598 3.68289 16.8449 3.69606 17.0815 3.75869C17.3181 3.82132 17.5392 3.93206 17.7311 4.084L17.7271 4.081C20.4291 6.102 22.1591 9.294 22.1591 12.89V12.924V12.922L22.1541 12.923ZM12.9241 1.846V11.114C12.9241 11.6036 12.7296 12.0731 12.3834 12.4193C12.0372 12.7655 11.5676 12.96 11.0781 12.96C10.5885 12.96 10.1189 12.7655 9.77274 12.4193C9.42655 12.0731 9.23206 11.6036 9.23206 11.114V11.074V11.076V1.83C9.23206 1.326 9.44206 0.871001 9.77906 0.548001L9.78006 0.547001C10.1091 0.209001 10.5691 -0.000999451 11.0781 -0.000999451C11.5871 -0.000999451 12.0471 0.209001 12.3761 0.547001C12.7141 0.871001 12.9241 1.325 12.9241 1.829V1.846V1.845V1.846Z" fill="#1F8235"/>
</g>
<defs>
<clipPath id="clip0_505_114">
<rect width="22" height="24" fill="white"/>
</clipPath>
</defs>
</svg>
