<svg id="Capa_1" enable-background="new 0 0 512 512" height="512" viewBox="0 0 512 512" width="512" xmlns="http://www.w3.org/2000/svg"><g><path d="m504.485 329.247h-125.264v-17.185c73.878-3.919 132.779-65.255 132.779-140.097 0-74.837-58.901-136.173-132.779-140.093v-9.328c0-12.431-10.113-22.544-22.544-22.544h-45.65c-12.431 0-22.544 10.113-22.544 22.544v9.125h-148.187c-43.511 0-83.84 19.693-110.647 54.029-2.554 3.271-1.972 7.994 1.299 10.548 3.27 2.555 7.993 1.974 10.548-1.299 23.938-30.662 59.949-48.248 98.799-48.248h19.536v250.537h-19.536c-69.072 0-125.266-56.194-125.266-125.27 0-18.473 3.925-36.257 11.664-52.861 1.753-3.762.125-8.232-3.636-9.986-3.762-1.752-8.232-.126-9.986 3.636-8.673 18.606-13.071 38.527-13.071 59.215 0 74.837 58.901 136.173 132.779 140.092v17.185h-125.264c-4.151 0-7.515 3.365-7.515 7.515v45.331c0 4.15 3.364 7.515 7.515 7.515h26.65v114.878c0 4.15 3.364 7.515 7.515 7.515h47.114c4.151 0 7.515-3.365 7.515-7.515v-114.879h50.49c4.151 0 7.515-3.364 7.515-7.515s-3.364-7.515-7.515-7.515h-131.77v-30.302h481.941v30.302h-320.113c-4.151 0-7.515 3.365-7.515 7.515s3.364 7.515 7.515 7.515h49.572v114.878c0 4.15 3.364 7.515 7.515 7.515h47.114c4.151 0 7.515-3.365 7.515-7.515v-114.878h127.118v114.878c0 4.15 3.364 7.515 7.515 7.515h47.114c4.151 0 7.515-3.365 7.515-7.515v-114.878h26.65c4.151 0 7.515-3.364 7.515-7.515v-45.331c0-4.15-3.364-7.514-7.515-7.514zm-423.206 167.724h-32.085v-107.364h32.085zm222.234-474.427c0-4.144 3.371-7.515 7.515-7.515h45.65c4.144 0 7.515 3.371 7.515 7.515v9.125h-60.679v-9.125zm-74.847 169.339h-53.805v-36.996h53.805zm0-52.026h-53.805v-36.996h53.805zm-53.805 67.055h53.805v36.996h-53.805zm53.805-160.213v41.133h-53.805v-41.133zm-53.805 212.238h53.805v38.298h-53.805zm-27.053 53.328h148.19c4.151 0 7.515-3.365 7.515-7.515s-3.364-7.515-7.515-7.515h-52.302v-250.536h128.009c69.072 0 125.266 56.194 125.266 125.271 0 69.072-56.194 125.266-125.266 125.266h-45.648c-4.151 0-7.515 3.365-7.515 7.515s3.364 7.515 7.515 7.515h38.135v16.982h-216.384zm125.736 184.706h-32.085v-107.364h32.085zm189.262 0h-32.085v-107.364h32.085z"/></g></svg>